<svg width="50" height="50" viewBox="0 0 50 50" fill="none" xmlns="http://www.w3.org/2000/svg">
<path fill-rule="evenodd" clip-rule="evenodd" d="M9.28022 24.5146C10.1955 23.5993 11.6795 23.5993 12.5948 24.5146L25 36.9198L37.4052 24.5146C38.3205 23.5993 39.8045 23.5993 40.7198 24.5146C41.6351 25.4299 41.6351 26.9139 40.7198 27.8292L26.6573 41.8917C25.742 42.8069 24.258 42.8069 23.3427 41.8917L9.28022 27.8292C8.36493 26.9139 8.36493 25.4299 9.28022 24.5146Z" fill="#888888"/>
<path fill-rule="evenodd" clip-rule="evenodd" d="M25 7.42188C26.2944 7.42188 27.3438 8.47121 27.3438 9.76562V38.2812C27.3438 39.5757 26.2944 40.625 25 40.625C23.7056 40.625 22.6562 39.5757 22.6562 38.2812V9.76562C22.6562 8.47121 23.7056 7.42188 25 7.42188Z" fill="#888888"/>
</svg>
