<svg width="100" height="100" viewBox="0 0 100 100" fill="none" xmlns="http://www.w3.org/2000/svg">
<path d="M65.625 34.375C69.769 34.375 73.7432 32.7288 76.6736 29.7986C79.6038 26.8682 81.25 22.894 81.25 18.75C81.25 14.606 79.6038 10.6317 76.6736 7.70146C73.7432 4.7712 69.769 3.125 65.625 3.125H34.375C30.231 3.125 26.2568 4.7712 23.3264 7.70146C20.3962 10.6317 18.75 14.606 18.75 18.75C18.75 22.894 20.3962 26.8682 23.3264 29.7986C26.2568 32.7288 30.231 34.375 34.375 34.375C30.231 34.375 26.2568 36.0212 23.3264 38.9514C20.3962 41.8818 18.75 45.856 18.75 50C18.75 54.144 20.3962 58.1182 23.3264 61.0486C26.2568 63.9788 30.231 65.625 34.375 65.625C31.2846 65.625 28.2638 66.5414 25.6942 68.2582C23.1248 69.9752 21.122 72.4154 19.9394 75.2706C18.7568 78.1256 18.4473 81.2674 19.0502 84.2982C19.6531 87.3292 21.1412 90.1134 23.3264 92.2986C25.5116 94.4838 28.2958 95.9718 31.3268 96.5748C34.3576 97.1776 37.4994 96.8682 40.3544 95.6856C43.2096 94.503 45.6498 92.5004 47.3668 89.9308C49.0836 87.3612 50 84.3404 50 81.25V34.375H65.625Z" fill="#AACAE8"/>
<path d="M65.625 65.625C74.2544 65.625 81.25 58.6294 81.25 50C81.25 41.3706 74.2544 34.375 65.625 34.375C56.9956 34.375 50 41.3706 50 50C50 58.6294 56.9956 65.625 65.625 65.625Z" fill="#AACAE8"/>
</svg>
