<svg width="100" height="100" viewBox="0 0 100 100" fill="none" xmlns="http://www.w3.org/2000/svg">
<path d="M6.25 6.25V93.75H93.75V6.25H6.25ZM53.125 74.2188C53.125 82.7364 48.0938 86.8886 40.8106 86.8886C34.2324 86.8886 30.414 83.4824 28.4766 79.371L35.1718 75.3184C36.4628 77.6094 37.4434 79.5468 40.2618 79.5468C42.6054 79.5468 44.5312 78.4902 44.5312 74.379V46.875H53.125V74.2188ZM72.5292 86.6934C64.8946 86.6934 59.961 83.248 57.5528 78.4902L64.2578 74.6094C66.0156 77.4882 68.3106 79.4062 72.3632 79.4062C75.7696 79.4062 77.748 77.8984 77.748 75.5488C77.748 72.7304 75.711 71.7324 71.9512 70.08L69.8964 69.1972C63.9628 66.6738 60.0292 63.502 60.0292 56.8046C60.0292 50.6386 64.7266 46.1348 72.0684 46.1348C77.2968 46.1348 81.0528 47.7598 83.7578 52.5176L77.3438 56.6406C75.9336 54.1152 74.414 53.125 72.0586 53.125C69.6504 53.125 68.123 54.6524 68.123 56.6406C68.123 59.1074 69.6504 60.1054 73.1738 61.6328L75.2286 62.5136C82.2188 65.5098 86.1542 68.5684 86.1542 75.4356C86.1562 82.8378 80.3418 86.6934 72.5292 86.6934Z" fill="#AACAE8"/>
</svg>
