<svg width="100" height="100" viewBox="0 0 100 100" fill="none" xmlns="http://www.w3.org/2000/svg">
<path d="M80.207 35.3C79.2084 34.9588 78.2024 34.6412 77.1894 34.347C77.3574 33.6634 77.5124 32.9758 77.6542 32.2844C79.9394 21.1712 78.4454 12.218 73.3458 9.27074C68.4628 6.4426 60.455 9.38988 52.377 16.4367C51.5826 17.1321 50.8046 17.8482 50.043 18.5852C49.5352 18.0956 49.0144 17.6164 48.4804 17.1477C40.0136 9.61252 31.5274 6.4387 26.4336 9.39574C21.5508 12.2297 20.0996 20.6458 22.1562 31.179C22.362 32.2206 22.593 33.2578 22.8496 34.2902C21.6484 34.632 20.4882 34.9972 19.3789 35.384C9.46484 38.8508 3.125 44.2864 3.125 49.923C3.125 55.7472 9.92968 61.5872 20.2676 65.1282C21.1062 65.4134 21.9524 65.6782 22.8066 65.923C22.5292 67.0286 22.2838 68.1464 22.0704 69.2766C20.1172 79.6282 21.6406 87.845 26.5136 90.6614C31.5468 93.5696 39.9902 90.5812 48.2208 83.3742C48.8718 82.804 49.5228 82.2018 50.1738 81.5676C50.9968 82.3632 51.8432 83.1354 52.7128 83.884C60.6816 90.7552 68.5508 93.5304 73.416 90.7062C78.4454 87.7884 80.08 78.9602 77.957 68.22C77.7942 67.3996 77.6068 66.5624 77.3946 65.7082C77.9882 65.5324 78.5696 65.3508 79.1386 65.1634C89.8808 61.595 96.879 55.8254 96.879 49.929C96.875 44.2648 90.332 38.7942 80.207 35.3ZM55.0118 19.4641C61.9316 13.427 68.4004 11.0442 71.3496 12.7473C74.4882 14.5617 75.709 21.8782 73.7364 31.4738C73.6062 32.0988 73.4654 32.722 73.3144 33.343C69.1848 32.4036 64.9972 31.7408 60.7792 31.3586C58.3644 27.8798 55.717 24.5682 52.8554 21.4466C53.556 20.7668 54.2734 20.106 55.0078 19.4641H55.0118ZM30.8066 54.7394C31.6542 56.3802 32.5404 58.0006 33.4648 59.6008C34.4062 61.2336 35.3874 62.8424 36.4082 64.427C33.506 64.1114 30.622 63.6466 27.7676 63.0344C28.5958 60.3548 29.6152 57.5716 30.8066 54.7394ZM30.8066 45.3C29.6348 42.5286 28.6426 39.802 27.8282 37.1692C30.504 36.5696 33.3554 36.0794 36.3282 35.7082C35.332 37.263 34.3736 38.8404 33.4532 40.4406C32.5326 42.041 31.6484 43.6608 30.8008 45.3H30.8066ZM32.9356 50.0208C34.17 47.4466 35.4994 44.9218 36.9238 42.4466C38.347 39.9726 39.862 37.5552 41.4688 35.1946C44.2578 34.9836 47.1172 34.8722 50.0058 34.8722C52.8946 34.8722 55.7714 34.9836 58.5586 35.1966C60.1484 37.552 61.6542 39.9608 63.0762 42.423C64.498 44.8854 65.845 47.3984 67.1172 49.9622C65.862 52.5454 64.5182 55.0806 63.086 57.5676C61.6654 60.0416 60.168 62.466 58.5938 64.841C55.8106 65.0364 52.9296 65.1438 50 65.1438C47.0704 65.1438 44.2442 65.052 41.5118 64.8742C39.8932 62.5058 38.3658 60.078 36.9296 57.591C35.4934 55.104 34.1602 52.5806 32.9296 50.0208H32.9356ZM66.5528 59.5734C67.4968 57.9354 68.403 56.276 69.2714 54.595C70.462 57.2944 71.5128 60.0532 72.42 62.8606C69.532 63.5108 66.612 64.0096 63.6718 64.3548C64.664 62.7804 65.6244 61.1868 66.5528 59.5734ZM69.2324 45.302C68.3678 43.6548 67.4688 42.0272 66.5352 40.4192C65.6236 38.8332 64.6738 37.2668 63.6856 35.72C66.6758 36.0988 69.545 36.6028 72.2344 37.218C71.3696 39.9612 70.3678 42.6592 69.2324 45.302ZM50.045 24.3156C51.9952 26.4468 53.8368 28.6748 55.5626 30.9914C51.871 30.8156 48.177 30.8156 44.4804 30.9914C46.3028 28.5812 48.168 26.345 50.045 24.3156ZM28.4492 12.8664C31.586 11.0461 38.5214 13.6477 45.832 20.1458C46.2988 20.5618 46.7696 20.9972 47.2382 21.4484C44.362 24.5698 41.696 27.8784 39.2578 31.3528C35.0494 31.732 30.87 32.3844 26.746 33.3058C26.5078 32.3476 26.293 31.3828 26.1016 30.4114C24.334 21.382 25.504 14.5754 28.4492 12.8664ZM23.877 62.0558C23.0958 61.8332 22.3242 61.5916 21.5626 61.3312C16.9922 59.7688 13.2168 57.7298 10.625 55.509C8.30468 53.5188 7.1289 51.5324 7.1289 49.923C7.1289 46.5032 12.2187 42.1398 20.707 39.1808C21.7734 38.8098 22.849 38.4706 23.9336 38.1634C25.1942 42.2146 26.721 46.1784 28.504 50.0286C26.6998 53.932 25.154 57.9498 23.877 62.0558ZM45.582 80.3508C41.9434 83.5384 38.2988 85.798 35.086 86.9368C32.1992 87.9582 29.9004 87.9876 28.5118 87.1848C25.5546 85.4758 24.3242 78.8762 26.002 70.0246C26.2012 68.983 26.429 67.9414 26.6856 66.8996C30.8506 67.7968 35.072 68.4096 39.3204 68.7336C41.7824 72.226 44.4704 75.5534 47.3672 78.6946C46.7852 79.2668 46.1894 79.8176 45.582 80.3508ZM50.1562 75.8156C48.2578 73.763 46.3632 71.4914 44.5156 69.05C46.3112 69.1204 48.1394 69.1554 50 69.1554C51.9102 69.1554 53.8008 69.1144 55.664 69.0304C53.9446 71.3844 52.1062 73.649 50.1562 75.8156ZM74.4766 81.3996C73.918 84.4152 72.795 86.427 71.4062 87.2316C68.4512 88.9466 62.1328 86.718 55.3204 80.841C54.539 80.1692 53.7578 79.4484 52.9628 78.6926C55.8032 75.5392 58.4284 72.1984 60.8204 68.6926C65.0922 68.3306 69.334 67.6748 73.5156 66.7298C73.707 67.5032 73.8764 68.261 74.0234 69.0032C74.9628 73.7492 75.0976 78.0422 74.4766 81.3996ZM77.875 61.3528C77.3632 61.5226 76.836 61.6868 76.3008 61.847C74.9896 57.7764 73.4032 53.7998 71.5528 49.9446C73.3338 46.1406 74.858 42.2218 76.1152 38.214C77.0742 38.4934 78.0058 38.7864 78.9024 39.097C87.5782 42.089 92.871 46.5188 92.871 49.923C92.871 53.5558 87.1542 58.2708 77.875 61.3528Z" fill="#AACAE8"/>
<path d="M50 58.3082C51.6622 58.3136 53.2886 57.8256 54.6734 56.906C56.058 55.9866 57.1388 54.6768 57.7786 53.1426C58.4184 51.6084 58.5888 49.919 58.2678 48.288C57.9468 46.6572 57.149 45.1582 55.9756 43.9808C54.8022 42.8036 53.3058 42.001 51.6758 41.6746C50.046 41.3484 48.356 41.513 46.8198 42.148C45.2836 42.7828 43.9702 43.8592 43.0462 45.241C42.1222 46.6226 41.629 48.2474 41.629 49.9096C41.6266 51.011 41.8414 52.1018 42.2608 53.12C42.6804 54.1382 43.2966 55.0638 44.074 55.8438C44.8514 56.6238 45.775 57.2428 46.7918 57.6656C47.8086 58.0886 48.8988 58.3068 50 58.3082Z" fill="#AACAE8"/>
</svg>
