<svg width="100" height="98" viewBox="0 0 100 98" fill="none" xmlns="http://www.w3.org/2000/svg">
<g clip-path="url(#clip0_71_816)">
<path d="M4.16663 4.17676H95.8334V93.3434H4.16663V4.17676Z" fill="#AACAE8"/>
<path d="M4.16662 4.17687H95.8334V93.3435H4.16662V4.17687ZM0 97.5103H100V0.0102539H0V97.5103ZM67.4166 40.0103C64.125 40.0103 63.0002 41.6769 63.0002 43.0519C63.0002 44.5517 63.75 45.5935 68.1668 47.8851C74.7084 51.0519 76.7502 54.0935 76.7502 58.5519C76.7502 65.2185 71.6668 68.8019 64.7916 68.8019C61.1666 68.8019 58.0416 68.0517 56.25 67.0103C55.9584 66.8853 55.9168 66.6769 55.9168 66.3435V60.2185C55.9168 59.8019 56.125 59.6767 56.4168 59.8853C59.0418 61.5937 62.0418 62.3435 64.7916 62.3435C68.0834 62.3435 69.4584 60.9685 69.4584 59.0935C69.4584 57.5935 68.5 56.2603 64.2916 54.0935C58.3748 51.2603 55.9168 48.3853 55.9168 43.5935C55.9168 38.2185 60.1252 33.7603 67.4166 33.7603C71 33.7603 73.5 34.3019 74.875 34.9269C75.2084 35.1351 75.2916 35.4685 75.2916 35.7601V41.4683C75.2916 41.8017 75.0834 42.0101 74.6666 41.8849C72.8332 40.7187 70.125 40.0103 67.4166 40.0103ZM31.5832 44.9685C32.5416 45.0519 33.2918 45.0519 34.9584 45.0519C39.8336 45.0519 44.4168 43.3437 44.4168 36.7187C44.4168 31.4271 41.125 28.7603 35.5834 28.7603C33.9168 28.7603 32.3334 28.8435 31.5832 28.8851V44.9685ZM24.1668 22.8435C24.1668 22.5519 24.7502 22.3435 25.0834 22.3435C27.7502 22.2185 31.7084 22.1351 35.8334 22.1351C47.375 22.1351 51.875 28.4685 51.875 36.5519C51.875 47.1351 44.2082 51.6769 34.7916 51.6769C33.2084 51.6769 32.6668 51.5935 31.5416 51.5935V67.5935C31.5416 67.9269 31.4166 68.0935 31.0416 68.0935H24.6668C24.3334 68.0935 24.1666 67.9685 24.1666 67.5935V22.8435H24.1668Z" fill="white"/>
</g>
<defs>
<clipPath id="clip0_71_816">
<rect width="100" height="97.6" fill="white"/>
</clipPath>
</defs>
</svg>
