<svg width="100" height="98" viewBox="0 0 100 98" fill="none" xmlns="http://www.w3.org/2000/svg">
<g clip-path="url(#clip0_71_810)">
<path d="M4.16663 4.17627H95.8334V93.3429H4.16663V4.17627Z" fill="#AACAE8"/>
<path d="M4.16662 4.17637H95.8334V93.3431H4.16662V4.17637ZM0 97.5098H100V0.00976562H0V97.5098ZM65.5 34.7599C65.5 34.4265 65.625 34.2597 66 34.2597H72.5416C72.8748 34.2597 73.0416 34.3847 73.0416 34.7599V67.6348C73.0416 67.9681 72.9582 68.1348 72.5416 68.1348H66.0834C65.6668 68.1348 65.5416 67.9265 65.5416 67.5933V34.7599H65.5ZM65.0416 25.3015C65.0416 22.6347 66.9166 21.0515 69.2918 21.0515C71.8334 21.0515 73.5416 22.7597 73.5416 25.3015C73.5416 28.0513 71.7502 29.5513 69.2084 29.5513C66.7916 29.5515 65.0416 28.0513 65.0416 25.3015ZM46.2916 48.4681C45.1252 43.8431 42.3752 33.7599 41.3334 28.8847H41.25C40.375 33.7599 38.1668 42.0097 36.4168 48.4681H46.2916ZM34.7084 55.2183L31.4166 67.7183C31.3334 68.0513 31.2084 68.1347 30.7918 68.1347H24.6668C24.2502 68.1347 24.1666 68.0097 24.2502 67.5097L36.0834 26.0929C36.2916 25.3431 36.4166 24.6763 36.5 22.6347C36.5 22.3431 36.625 22.2181 36.8332 22.2181H45.5832C45.8748 22.2181 45.9998 22.3015 46.0834 22.6347L59.3332 67.5931C59.4166 67.9263 59.3332 68.1347 59 68.1347H52.0832C51.75 68.1347 51.5414 68.0513 51.4584 67.7598L48.0416 55.2183H34.7084Z" fill="white"/>
</g>
<defs>
<clipPath id="clip0_71_810">
<rect width="100" height="97.6" fill="white"/>
</clipPath>
</defs>
</svg>
