<svg width="100" height="100" viewBox="0 0 100 100" fill="none" xmlns="http://www.w3.org/2000/svg">
<g clip-path="url(#clip0_71_823)">
<path d="M99.957 64.0728C99.6698 61.7448 98.4902 59.7252 96.4412 58.0632C96.4158 58.0322 96.3878 58.0034 96.3574 57.9772L96.2538 57.903L96.2206 57.8796L95.1326 57.0982L95.0956 57.071L94.957 56.9732C94.906 56.9436 94.8516 56.9206 94.7948 56.905C91.3534 54.856 85.6562 53.4206 76.9394 56.4966C74.8592 52.9966 74.623 50.192 76.0154 45.8952C76.2636 45.147 76.033 44.653 75.2908 44.3326C73.7986 43.6978 71.7558 44.022 70.3066 44.405C69.6308 44.5806 69.2244 44.9634 69.0956 45.5436C68.1776 49.8404 65.5096 53.7662 62.9296 57.5552L62.7772 57.778C61.1874 54.4068 61.5174 51.7956 62.6248 48.524C62.8456 47.8718 62.6718 47.4382 62.0604 47.1138C60.3534 46.233 57.7928 46.8384 56.7732 47.1392C55.4804 47.5162 54.0936 51.0104 52.5448 55.194C52.1542 56.2466 51.8182 57.147 51.617 57.567C51.1386 58.5436 50.6814 59.6568 50.1972 60.8384C49.1034 63.5124 47.871 66.522 46.1092 68.4128C45.4686 66.9966 46.4764 64.7642 47.455 62.5982C48.6132 60.0378 49.7068 57.6178 48.4472 56.0728C48.2478 55.8286 48.0008 55.6278 47.721 55.4826C47.4412 55.3376 47.1346 55.2512 46.8202 55.2292C46.41 55.1978 45.9982 55.2648 45.619 55.4244C45.7498 54.321 45.7556 53.4498 45.4334 52.397C44.9724 50.8952 43.7752 50.0534 42.1268 50.0982C38.3728 50.2076 35.197 53.0046 33.1912 55.3326C31.8552 56.8952 28.8944 58.0866 26.2948 59.1314C25.2674 59.567 24.2908 59.9576 23.4764 60.3482C22.1776 59.2506 20.5272 58.1432 18.7889 56.9732C13.9061 53.696 8.37286 49.9792 8.18146 44.94C7.90802 37.4968 16.3846 32.2174 23.783 28.4498C29.3904 25.5982 34.2654 23.7076 38.6874 22.6744C44.8982 21.2232 50.1444 21.5162 54.2772 23.5416C56.539 24.649 57.5976 27.0572 56.9256 29.5338C55.1678 35.9694 47.8846 40.3796 41.656 42.3638C37.9042 43.5592 34.7108 44.0592 31.8904 43.8952C28.3552 43.69 25.4686 41.9166 24.2342 41.1608C24.0364 41.0258 23.8274 40.908 23.6092 40.8092L23.5526 40.7956C23.4408 40.7678 23.3236 40.7712 23.2136 40.8056C23.1036 40.8402 23.0054 40.9042 22.9296 40.9908C22.6756 41.2936 22.7654 41.772 22.8572 42.0142C24.0584 45.153 26.5388 47.1354 30.2284 47.9068C31.4358 48.1486 32.665 48.2658 33.8964 48.2564C42.531 48.2564 53.5486 43.278 57.5956 39.1784C60.3554 36.3854 62.365 33.5142 63.1972 28.5632C64.0662 23.3776 60.5506 19.774 56.9686 18.1139C48.2636 14.0963 38.3768 15.6842 31.615 17.7233C23.705 20.108 15.5213 24.444 9.16584 29.6236C1.32989 36.0046 -1.50214 41.9284 0.74395 47.2506C3.0506 52.7056 8.6756 56.1178 14.1151 59.4186C15.8729 60.483 17.5447 61.4966 19.0506 62.5436C18.5975 62.7642 18.1346 62.9888 17.6639 63.2134C13.0975 65.4264 7.91778 67.9166 5.04474 72.0318C2.9588 75.03 2.56818 78.0142 3.88458 80.903C4.5877 82.44 5.8377 83.483 7.57404 84.0026C8.47726 84.2584 9.41266 84.3828 10.3514 84.3716C13.7322 84.3716 17.4529 83.0046 19.4783 81.7408C23.0564 79.4948 25.3748 76.4792 26.371 72.778C27.2576 69.485 27.0448 66.2134 25.7556 63.2936L30.1404 61.0826C28.0252 68.1138 29.6464 72.3132 31.4276 74.6296C32.0838 75.483 33.2674 75.9966 34.5896 76.0202C35.912 76.0436 37.1288 75.5456 37.8162 74.6978C39.117 73.0866 40.078 71.2018 40.9628 69.317C40.9158 70.5474 40.9744 71.7936 41.3944 72.8502C41.7714 73.8014 42.3924 74.4322 43.1932 74.6744C44.0448 74.9342 45.0428 74.7154 46.0038 74.0592C50.3338 71.0964 53.2948 63.985 55.6736 58.2682C56.0116 57.4556 56.3358 56.6744 56.6502 55.944C57.2388 58.0502 58.0576 60.0854 59.0916 62.0124C59.3222 62.4302 59.3026 62.6138 58.99 62.9576C58.5194 63.4732 57.8632 64.0964 57.1678 64.7564C55.0624 66.7546 52.4412 69.2486 52.0896 71.442C51.953 72.321 52.5584 73.1216 53.4978 73.3034C56.324 73.8658 59.7284 73.0436 62.6072 71.106C65.2244 69.3482 66.2088 66.897 65.537 63.8424C64.8866 60.901 66.371 57.2486 69.949 52.9792C70.535 55.4264 71.3162 57.405 72.3944 59.1374L72.365 59.1608C69.7596 61.4362 66.1894 64.5514 66.744 68.3306C66.7906 68.6902 66.9114 69.0358 67.0992 69.346C67.2868 69.656 67.537 69.9236 67.8338 70.1314C68.151 70.3456 68.5092 70.492 68.8856 70.5612C69.262 70.6304 69.6486 70.621 70.0214 70.5338C73.4334 69.817 76.0018 68.3736 77.869 66.1256C79.7362 63.8776 79.0546 61.3854 78.4256 59.4518C83.3084 58.1276 87.6562 58.1608 91.7264 59.5494C94.0116 60.3306 95.6502 61.6138 96.5956 63.3854C97.785 65.6138 97.1424 67.6706 94.7812 69.1764C94.0566 69.6392 93.707 69.9224 93.6854 70.28C93.6806 70.3628 93.6958 70.4458 93.7298 70.5216C93.7638 70.5974 93.8156 70.6638 93.8808 70.7154C94.1542 70.94 94.998 71.3306 96.9062 70.1296C98.664 69.026 99.6952 67.524 99.9588 65.6374C100.012 65.1172 100.011 64.593 99.957 64.0728ZM21.8846 68.9674L21.865 69.2174C21.5604 72.0768 20.1072 74.569 17.5389 76.6392C15.9256 77.94 14.1736 78.7388 12.6072 78.8912C11.5135 78.9966 10.7186 78.8482 10.2459 78.4478C9.8924 78.149 9.70294 77.7018 9.65998 77.0806C9.33966 72.1042 17.1444 67.1588 21.537 65.5318C21.8504 66.6484 21.968 67.8108 21.8846 68.9674ZM41.8748 54.9322C41.1522 59.0514 39.0448 66.8268 35.7322 69.8444C35.574 69.9888 35.4412 70.0396 35.3806 70.026C35.3202 70.0124 35.2732 69.94 35.2244 69.8306C34.119 67.2682 34.5272 62.94 36.201 59.5396C37.4882 56.9186 39.326 55.1822 41.3806 54.6568C41.466 54.6334 41.554 54.6208 41.6424 54.6198C41.7116 54.6148 41.7804 54.6334 41.8378 54.6724C41.862 54.7108 41.8778 54.7536 41.8842 54.7984C41.8906 54.8432 41.8874 54.8888 41.8748 54.9322ZM58.1814 69.9478C57.5584 70.5982 56.705 70.5104 56.906 70.272L60.078 66.905C59.8222 68.0632 59.0662 69.022 58.1814 69.9478ZM71.3398 67.0358C71.038 67.1844 70.7116 67.2764 70.3768 67.3072C70.287 65.5358 72.0038 63.5416 73.6972 62.2116C74.1522 64.0592 73.2206 66.0124 71.3398 67.0358Z" fill="#AACAE8"/>
</g>
<defs>
<clipPath id="clip0_71_823">
<rect width="100" height="100" fill="white"/>
</clipPath>
</defs>
</svg>
