<svg width="50" height="50" viewBox="0 0 50 50" fill="none" xmlns="http://www.w3.org/2000/svg">
<path fill-rule="evenodd" clip-rule="evenodd" d="M6.25 14.8438C6.25 13.5493 7.29933 12.5 8.59375 12.5H41.4062C42.7007 12.5 43.75 13.5493 43.75 14.8438C43.75 16.1382 42.7007 17.1875 41.4062 17.1875H8.59375C7.29933 17.1875 6.25 16.1382 6.25 14.8438Z" fill="black"/>
<path fill-rule="evenodd" clip-rule="evenodd" d="M6.25 25C6.25 23.7056 7.29933 22.6562 8.59375 22.6562H41.4062C42.7007 22.6562 43.75 23.7056 43.75 25C43.75 26.2944 42.7007 27.3438 41.4062 27.3438H8.59375C7.29933 27.3438 6.25 26.2944 6.25 25Z" fill="black"/>
<path fill-rule="evenodd" clip-rule="evenodd" d="M6.25 35.1562C6.25 33.8618 7.29933 32.8125 8.59375 32.8125H41.4062C42.7007 32.8125 43.75 33.8618 43.75 35.1562C43.75 36.4507 42.7007 37.5 41.4062 37.5H8.59375C7.29933 37.5 6.25 36.4507 6.25 35.1562Z" fill="black"/>
</svg>
